<svg aria-hidden="true" style="position: absolute; width: 0; height: 0; overflow: hidden;" version="1.1" xmlns="http://www.w3.org/2000/svg" xmlns:xlink="http://www.w3.org/1999/xlink">
    <defs>
        <!-- Icons by <a href="https://iconscout.com/contributors/bharat-icons" class="text-underline font-size-sm">Bharat Design</a> -->
        <symbol id="user" viewBox="0 0 24 24" fill="none">
            <circle cx="12" cy="6" r="4" stroke="#1C274C" stroke-width="1.5" />
            <path
                d="M19.9975 18C20 17.8358 20 17.669 20 17.5C20 15.0147 16.4183 13 12 13C7.58172 13 4 15.0147 4 17.5C4 19.9853 4 22 12 22C14.231 22 15.8398 21.8433 17 21.5634"
                stroke="#1C274C" stroke-width="1.5" stroke-linecap="round" />
        </symbol>


        <symbol id="calendar-mark" viewBox="0 0 24 24" fill="none">
            <path d="M7 4V2.5" stroke="#1C274C" stroke-width="1.5" stroke-linecap="round" />
            <path d="M17 4V2.5" stroke="#1C274C" stroke-width="1.5" stroke-linecap="round" />
            <circle cx="16.5" cy="16.5" r="1.5" stroke="#1C274C" stroke-width="1.5" />
            <path d="M21.5 9H16.625H10.75M2 9H5.875" stroke="#1C274C" stroke-width="1.5"
                stroke-linecap="round" />
            <path
                d="M14 22H10C6.22876 22 4.34315 22 3.17157 20.8284C2 19.6569 2 17.7712 2 14V12C2 8.22876 2 6.34315 3.17157 5.17157C4.34315 4 6.22876 4 10 4H14C17.7712 4 19.6569 4 20.8284 5.17157C22 6.34315 22 8.22876 22 12V14C22 17.7712 22 19.6569 20.8284 20.8284C20.1752 21.4816 19.3001 21.7706 18 21.8985"
                stroke="#1C274C" stroke-width="1.5" stroke-linecap="round" />
        </symbol>

        <symbol id="check-circle" viewBox="0 0 24 24" fill="none">
            <path fill="currentColor" fill-rule="evenodd"
                d="M16.0303 8.96967C16.3232 9.26256 16.3232 9.73744 16.0303 10.0303L11.0303 15.0303C10.7374 15.3232 10.2626 15.3232 9.96967 15.0303L7.96967 13.0303C7.67678 12.7374 7.67678 12.2626 7.96967 11.9697C8.26256 11.6768 8.73744 11.6768 9.03033 11.9697L10.5 13.4393L14.9697 8.96967C15.2626 8.67678 15.7374 8.67678 16.0303 8.96967Z"
                clip-rule="evenodd"></path>
            <path fill="currentColor" fill-rule="evenodd"
                d="M12 2.75C10.3139 2.75 8.73533 3.20043 7.37554 3.98703C7.017 4.19443 6.5582 4.07191 6.3508 3.71337C6.14339 3.35482 6.26591 2.89602 6.62446 2.68862C8.2064 1.77351 10.0432 1.25 12 1.25C17.9371 1.25 22.75 6.06294 22.75 12C22.75 17.9371 17.9371 22.75 12 22.75C6.06294 22.75 1.25 17.9371 1.25 12C1.25 10.0432 1.77351 8.2064 2.68862 6.62446C2.89602 6.26591 3.35482 6.14339 3.71337 6.3508C4.07191 6.5582 4.19443 7.017 3.98703 7.37554C3.20043 8.73533 2.75 10.3139 2.75 12C2.75 17.1086 6.89137 21.25 12 21.25C17.1086 21.25 21.25 17.1086 21.25 12C21.25 6.89137 17.1086 2.75 12 2.75Z"
                clip-rule="evenodd"></path>
        </symbol>


        <!-- <a href="https://iconscout.com/icons/chevron-double-right" class="text-underline font-size-sm" target="_blank">chevron-double-right</a> by <a href="https://iconscout.com/contributors/omarsafaa" class="text-underline font-size-sm">Omar Safaa</a> on <a href="https://iconscout.com" class="text-underline font-size-sm">IconScout</a> -->
        <symbol viewBox="0 0 40 40" id="tick">
            <path stroke="currentColor"
                d="M15.48 28.62a1 1 0 0 1-.71-.29l-7.54-7.54a1 1 0 0 1 0-1.41 1 1 0 0 1 1.42 0l6.83 6.83L32.12 9.57a1 1 0 0 1 1.41 0 1 1 0 0 1 0 1.42L16.18 28.33a1 1 0 0 1-.7.29Z">
            </path>
        </symbol>


        <symbol viewBox="0 0 24 24" id="chevron-double-right"><path d="M7,17a1,1,0,0,1-.71-1.71L9.59,12,6.29,8.71A1,1,0,0,1,7.71,7.29l4,4a1,1,0,0,1,0,1.41l-4,4A1,1,0,0,1,7,17Z"></path><path d="M13,17a1,1,0,0,1-.71-1.71L15.59,12,12.29,8.71a1,1,0,0,1,1.41-1.41l4,4a1,1,0,0,1,0,1.41l-4,4A1,1,0,0,1,13,17Z"></path></symbol>

        <symbol viewBox="0 0 24 24" id="eye" fill="none">
            <path d="M15.0007 12C15.0007 13.6569 13.6576 15 12.0007 15C10.3439 15 9.00073 13.6569 9.00073 12C9.00073 10.3431 10.3439 9 12.0007 9C13.6576 9 15.0007 10.3431 15.0007 12Z" stroke="currentColor" stroke-width="1.5" stroke-linecap="round" stroke-linejoin="round"/>
            <path d="M12.0012 5C7.52354 5 3.73326 7.94288 2.45898 12C3.73324 16.0571 7.52354 19 12.0012 19C16.4788 19 20.2691 16.0571 21.5434 12C20.2691 7.94291 16.4788 5 12.0012 5Z" stroke="currentColor" stroke-width="1.5" stroke-linecap="round" stroke-linejoin="round"/>
        </symbol>

        <symbol viewBox="0 0 24 24" id="eye-slash" fill="none">
            <path d="M2.99902 3L20.999 21M9.8433 9.91364C9.32066 10.4536 8.99902 11.1892 8.99902 12C8.99902 13.6569 10.3422 15 11.999 15C12.8215 15 13.5667 14.669 14.1086 14.133M6.49902 6.64715C4.59972 7.90034 3.15305 9.78394 2.45703 12C3.73128 16.0571 7.52159 19 11.9992 19C13.9881 19 15.8414 18.4194 17.3988 17.4184M10.999 5.04939C11.328 5.01673 11.6617 5 11.9992 5C16.4769 5 20.2672 7.94291 21.5414 12C21.2607 12.894 20.8577 13.7338 20.3522 14.5" stroke="currentColor" stroke-width="1.5" stroke-linecap="round" stroke-linejoin="round"/>
        </symbol>
    </defs>
</svg>
