<svg aria-hidden="true" style="position: absolute; width: 0; height: 0; overflow: hidden;" version="1.1" xmlns="http://www.w3.org/2000/svg" xmlns:xlink="http://www.w3.org/1999/xlink">
    <defs>
        <symbol id="user" viewBox="0 0 24 24" fill="none">
            <circle cx="12" cy="6" r="4" stroke="#1C274C" stroke-width="1.5"/>
            <path d="M19.9975 18C20 17.8358 20 17.669 20 17.5C20 15.0147 16.4183 13 12 13C7.58172 13 4 15.0147 4 17.5C4 19.9853 4 22 12 22C14.231 22 15.8398 21.8433 17 21.5634" stroke="#1C274C" stroke-width="1.5" stroke-linecap="round"/>
        </symbol>

        <symbol id="calendar-mark" viewBox="0 0 24 24" fill="none">
            <path d="M7 4V2.5" stroke="#1C274C" stroke-width="1.5" stroke-linecap="round"/>
            <path d="M17 4V2.5" stroke="#1C274C" stroke-width="1.5" stroke-linecap="round"/>
            <circle cx="16.5" cy="16.5" r="1.5" stroke="#1C274C" stroke-width="1.5"/>
            <path d="M21.5 9H16.625H10.75M2 9H5.875" stroke="#1C274C" stroke-width="1.5" stroke-linecap="round"/>
            <path d="M14 22H10C6.22876 22 4.34315 22 3.17157 20.8284C2 19.6569 2 17.7712 2 14V12C2 8.22876 2 6.34315 3.17157 5.17157C4.34315 4 6.22876 4 10 4H14C17.7712 4 19.6569 4 20.8284 5.17157C22 6.34315 22 8.22876 22 12V14C22 17.7712 22 19.6569 20.8284 20.8284C20.1752 21.4816 19.3001 21.7706 18 21.8985" stroke="#1C274C" stroke-width="1.5" stroke-linecap="round"/>
        </symbol>    

    </defs>
</svg>
